<svg xmlns="http://www.w3.org/2000/svg" xmlns:xlink="http://www.w3.org/1999/xlink" width="500" zoomAndPan="magnify" viewBox="0 0 375 374.999991" height="500" preserveAspectRatio="xMidYMid meet" version="1.2"><defs/><g id="ac27c17260"><rect x="0" width="375" y="0" height="374.999991" style="fill:#ffffff;fill-opacity:1;stroke:none;"/><rect x="0" width="375" y="0" height="374.999991" style="fill:#e8e8e8;fill-opacity:1;stroke:none;"/><g style="fill:#000000;fill-opacity:1;"><g transform="translate(96.749998, 263.249983)"><path style="stroke:none" d="M 100.203125 -131.09375 C 84.398438 -131.09375 71.5 -125.289062 61.5 -113.6875 C 51.5 -102.09375 46.5 -86.195312 46.5 -66 L 46.5 0 L 21.90625 0 L 21.90625 -149.09375 L 46.5 -149.09375 L 46.5 -123.296875 L 42.59375 -106.203125 L 49.5 -106.203125 C 52.5 -119.796875 58.75 -130.84375 68.25 -139.34375 C 77.75 -147.84375 90.597656 -152.09375 106.796875 -152.09375 C 123.597656 -152.09375 137.046875 -147.144531 147.140625 -137.25 C 157.242188 -127.351562 162.296875 -112.003906 162.296875 -91.203125 L 162.296875 0 L 138 0 L 138 -87.90625 C 138 -103.5 134.898438 -114.59375 128.703125 -121.1875 C 122.503906 -127.789062 113.003906 -131.09375 100.203125 -131.09375 Z M 100.203125 -131.09375 "/></g></g></g></svg>